# xmcd
#
# Track frame offsets: 
#        300
#        25419
#        44715
#        68188
#        91388
#        118929
#        134802
#        154216
#        180046
#        201211
#        228591
#        256374
#
# Disc length: 4459 seconds
#
# Revision: 0
# Processed by: cddbd v1.5.2PL0 Copyright (c) Steve Scherf et al.
# Submitted via: ExactAudioCopy v1.0b1
#
DISCID=b211670c
DTITLE=Blindside Blues Band - Raised On Rock
DYEAR=2010
DGENRE=Blues Rock
TTITLE0=Raised On Rock
TTITLE1=Night Train
TTITLE2=Folsom Prison Blues
TTITLE3=Wave On
TTITLE4=Child Of The Sun
TTITLE5=War In The Streets
TTITLE6=Take You Down
TTITLE7=Bury The Axe
TTITLE8=World On Fire
TTITLE9=Love Is Worth The Blues
TTITLE10=Backstreet Rider
TTITLE11=Born With The Blues
EXTD=
EXTT0=
EXTT1=
EXTT2=
EXTT3=
EXTT4=
EXTT5=
EXTT6=
EXTT7=
EXTT8=
EXTT9=
EXTT10=
EXTT11=
PLAYORDER=
